<svg id="Capa_1" enable-background="new 0 0 512 512" height="512" viewBox="0 0 512 512" width="512" xmlns="http://www.w3.org/2000/svg"><g><g><path clip-rule="evenodd" d="m112.159 104.417h287.653c2.693 0 4.875 2.183 4.875 4.876v283.409c0 2.665-2.183 4.876-4.875 4.876h-287.653c-2.664 0-4.875-2.211-4.875-4.876v-283.41c0-2.692 2.211-4.875 4.875-4.875zm372.719 400.083v-497h-80.19v54.851c0 2.693-2.183 4.904-4.875 4.904h-287.654c-2.664 0-4.875-2.211-4.875-4.904v-54.851h-80.162v497h80.162v-54.879c0-2.693 2.211-4.876 4.875-4.876h122.312 38.635 126.706c2.693 0 4.875 2.183 4.875 4.876v54.879z" fill="#beb9dd" fill-rule="evenodd"/></g><g><path clip-rule="evenodd" d="m399.812 104.417h-287.653c-2.664 0-4.875 2.183-4.875 4.876v283.409c0 2.665 2.211 4.876 4.875 4.876h287.653c2.693 0 4.875-2.211 4.875-4.876v-283.41c.001-2.692-2.182-4.875-4.875-4.875z" fill="#eff6ff" fill-rule="evenodd"/></g><g><path clip-rule="evenodd" d="m112.159 67.255h287.653c2.693 0 4.875-2.211 4.875-4.904v-54.851h-297.403v54.851c0 2.692 2.211 4.904 4.875 4.904z" fill="#eff6ff" fill-rule="evenodd"/></g><g><path clip-rule="evenodd" d="m399.812 444.745h-287.653c-2.664 0-4.875 2.183-4.875 4.876v54.879h297.404v-54.879c0-2.693-2.183-4.876-4.876-4.876z" fill="#eff6ff" fill-rule="evenodd"/></g><g><path clip-rule="evenodd" d="m147.421 250.997c0 59.953 48.613 108.567 108.564 108.567 59.98 0 108.593-48.614 108.593-108.567 0-59.981-48.613-108.596-108.593-108.596-59.95 0-108.564 48.615-108.564 108.596z" fill="#9fd4fe" fill-rule="evenodd"/></g><g><path clip-rule="evenodd" d="m399.812 67.255h-99.352c5.329 11.452 10.204 23.896 14.541 37.162h84.811c2.693 0 4.875 2.183 4.875 4.876v283.409c0 2.665-2.183 4.876-4.875 4.876h-77.469c-4.365 16.838-9.496 32.627-15.335 47.169h92.804c2.693 0 4.875 2.183 4.875 4.876v54.877h80.19v-497h-80.19v54.851c.001 2.692-2.182 4.904-4.875 4.904z" fill="#a7a2d3" fill-rule="evenodd"/></g><g><path clip-rule="evenodd" d="m399.812 104.417h-84.811c6.86 20.92 12.387 43.909 16.355 68.429 20.466 19.729 33.221 47.452 33.221 78.151 0 28.687-11.14 54.794-29.31 74.183-2.721 25.625-7.115 49.947-12.926 72.397h77.469c2.693 0 4.875-2.211 4.875-4.876v-283.409c.003-2.692-2.18-4.875-4.873-4.875z" fill="#d9eeff" fill-rule="evenodd"/></g><g><path clip-rule="evenodd" d="m399.812 444.745h-92.804c-9.439 23.556-20.721 43.767-33.335 59.755h131.014v-54.879c.001-2.693-2.182-4.876-4.875-4.876z" fill="#d9eeff" fill-rule="evenodd"/></g><g><path clip-rule="evenodd" d="m300.46 67.255h99.352c2.693 0 4.875-2.211 4.875-4.904v-54.851h-144.761c15.25 14.513 28.998 34.866 40.534 59.755z" fill="#d9eeff" fill-rule="evenodd"/></g><g><path clip-rule="evenodd" d="m252.754 142.458c43.454 14.173 74.861 55.049 74.861 103.238 0 58.876-46.884 106.81-105.333 108.539 10.601 3.458 21.94 5.329 33.703 5.329 31.265 0 59.469-13.209 79.283-34.384 18.17-19.389 29.31-45.496 29.31-74.183 0-30.699-12.756-58.422-33.221-78.151-19.53-18.85-46.09-30.444-75.371-30.444-1.077-.001-2.154.028-3.232.056z" fill="#85beef" fill-rule="evenodd"/></g><g><path d="m74.686 55.219h-14.966c-4.142 0-7.5 3.357-7.5 7.5s3.358 7.5 7.5 7.5h14.966c4.142 0 7.5-3.357 7.5-7.5s-3.358-7.5-7.5-7.5z"/><path d="m74.686 110.438h-14.966c-4.142 0-7.5 3.357-7.5 7.5s3.358 7.5 7.5 7.5h14.966c4.142 0 7.5-3.357 7.5-7.5s-3.358-7.5-7.5-7.5z"/><path d="m74.686 165.657h-14.966c-4.142 0-7.5 3.357-7.5 7.5s3.358 7.5 7.5 7.5h14.966c4.142 0 7.5-3.357 7.5-7.5s-3.358-7.5-7.5-7.5z"/><path d="m74.686 220.876h-14.966c-4.142 0-7.5 3.357-7.5 7.5s3.358 7.5 7.5 7.5h14.966c4.142 0 7.5-3.357 7.5-7.5s-3.358-7.5-7.5-7.5z"/><path d="m74.686 276.096h-14.966c-4.142 0-7.5 3.357-7.5 7.5s3.358 7.5 7.5 7.5h14.966c4.142 0 7.5-3.357 7.5-7.5s-3.358-7.5-7.5-7.5z"/><path d="m74.686 331.314h-14.966c-4.142 0-7.5 3.357-7.5 7.5s3.358 7.5 7.5 7.5h14.966c4.142 0 7.5-3.357 7.5-7.5s-3.358-7.5-7.5-7.5z"/><path d="m74.686 386.533h-14.966c-4.142 0-7.5 3.357-7.5 7.5s3.358 7.5 7.5 7.5h14.966c4.142 0 7.5-3.357 7.5-7.5s-3.358-7.5-7.5-7.5z"/><path d="m74.686 441.781h-14.966c-4.142 0-7.5 3.357-7.5 7.5s3.358 7.5 7.5 7.5h14.966c4.142 0 7.5-3.357 7.5-7.5s-3.358-7.5-7.5-7.5z"/><path d="m399.812 437.245h-126.507c-4.142 0-7.5 3.357-7.5 7.5s3.358 7.5 7.5 7.5h123.883v52.255c0 4.143 3.358 7.5 7.5 7.5s7.5-3.357 7.5-7.5v-54.879c0-6.824-5.552-12.376-12.376-12.376z"/><path d="m238.695 437.245h-126.536c-6.824 0-12.375 5.552-12.375 12.376v54.879c0 4.143 3.358 7.5 7.5 7.5s7.5-3.357 7.5-7.5v-52.255h123.911c4.142 0 7.5-3.357 7.5-7.5s-3.358-7.5-7.5-7.5z"/><path d="m255.986 367.064c64.014 0 116.093-52.067 116.093-116.067 0-64.016-52.079-116.096-116.093-116.096-63.998 0-116.064 52.08-116.064 116.096-.001 64 52.066 116.067 116.064 116.067zm0-217.163c55.743 0 101.093 45.352 101.093 101.096 0 55.729-45.35 101.067-101.093 101.067-55.727 0-101.064-45.339-101.064-101.067-.001-55.744 45.337-101.096 101.064-101.096z"/><path d="m199.675 312.905c4.343 2.514 9.166 3.798 14.055 3.798 2.443 0 4.902-.32 7.326-.969 7.291-1.949 13.385-6.626 17.156-13.16.001-.002.002-.004.003-.005 0 0 .001-.001.001-.001l17.779-30.796 17.774 30.773c.002.003.003.005.004.008.002.003.004.006.005.009l.004.007c.001.001.002.002.002.003 3.753 6.523 9.821 11.193 17.09 13.15 2.439.657 4.915.982 7.376.982 4.888 0 9.714-1.283 14.065-3.794 13.472-7.775 18.099-25.074 10.318-38.558-3.758-6.525-9.838-11.192-17.12-13.143-7.28-1.948-14.887-.947-21.417 2.821-4.054 2.341-7.389 5.574-9.803 9.431l-9.64-16.689 37.255-64.53c2.071-3.587.842-8.174-2.745-10.245-3.588-2.071-8.174-.843-10.245 2.745l-32.927 57.033-32.942-57.034c-2.072-3.587-6.66-4.816-10.246-2.743-3.587 2.071-4.815 6.658-2.744 10.245l37.272 64.531-9.642 16.701c-2.416-3.86-5.754-7.097-9.813-9.441-13.453-7.785-30.74-3.162-38.54 10.312-7.776 13.483-3.136 30.782 10.339 38.559zm85.766-27.863c.911-3.406 3.097-6.254 6.154-8.019 3.062-1.768 6.625-2.238 10.039-1.324 3.405.912 6.247 3.093 8.005 6.146 3.65 6.325 1.487 14.433-4.821 18.073-3.066 1.77-6.631 2.238-10.043 1.32-3.401-.916-6.239-3.102-8.005-6.177l-.001-.001c-1.767-3.054-2.239-6.611-1.328-10.018zm-83.114-3.189c2.451-4.233 6.9-6.603 11.465-6.603 2.238 0 4.504.569 6.576 1.769.002.001.005.003.008.005 3.068 1.771 5.262 4.628 6.175 8.045.91 3.4.44 6.948-1.325 9.999v.001c-1.771 3.069-4.628 5.262-8.045 6.176-3.4.909-6.948.44-10-1.326-6.32-3.648-8.495-11.756-4.854-18.066z"/><path d="m452.252 55.219h-14.938c-4.142 0-7.5 3.357-7.5 7.5s3.358 7.5 7.5 7.5h14.938c4.142 0 7.5-3.357 7.5-7.5s-3.358-7.5-7.5-7.5z"/><path d="m452.252 110.438h-14.938c-4.142 0-7.5 3.357-7.5 7.5s3.358 7.5 7.5 7.5h14.938c4.142 0 7.5-3.357 7.5-7.5s-3.358-7.5-7.5-7.5z"/><path d="m452.252 165.657h-14.938c-4.142 0-7.5 3.357-7.5 7.5s3.358 7.5 7.5 7.5h14.938c4.142 0 7.5-3.357 7.5-7.5s-3.358-7.5-7.5-7.5z"/><path d="m452.252 220.876h-14.938c-4.142 0-7.5 3.357-7.5 7.5s3.358 7.5 7.5 7.5h14.938c4.142 0 7.5-3.357 7.5-7.5s-3.358-7.5-7.5-7.5z"/><path d="m452.252 276.096h-14.938c-4.142 0-7.5 3.357-7.5 7.5s3.358 7.5 7.5 7.5h14.938c4.142 0 7.5-3.357 7.5-7.5s-3.358-7.5-7.5-7.5z"/><path d="m452.252 331.314h-14.938c-4.142 0-7.5 3.357-7.5 7.5s3.358 7.5 7.5 7.5h14.938c4.142 0 7.5-3.357 7.5-7.5s-3.358-7.5-7.5-7.5z"/><path d="m452.252 386.533h-14.938c-4.142 0-7.5 3.357-7.5 7.5s3.358 7.5 7.5 7.5h14.938c4.142 0 7.5-3.357 7.5-7.5s-3.358-7.5-7.5-7.5z"/><path d="m452.252 441.781h-14.938c-4.142 0-7.5 3.357-7.5 7.5s3.358 7.5 7.5 7.5h14.938c4.142 0 7.5-3.357 7.5-7.5s-3.358-7.5-7.5-7.5z"/><path d="m399.812 96.917h-287.653c-6.824 0-12.375 5.552-12.375 12.375v283.409c0 6.824 5.552 12.376 12.375 12.376h287.653c6.824 0 12.375-5.552 12.375-12.376v-283.409c.001-6.823-5.551-12.375-12.375-12.375zm-2.624 293.16h-282.404v-278.16h282.404z"/><path d="m484.878 0c-4.142 0-7.5 3.357-7.5 7.5v497c0 4.143 3.358 7.5 7.5 7.5s7.5-3.357 7.5-7.5v-497c0-4.143-3.358-7.5-7.5-7.5z"/><path d="m27.122 0c-4.142 0-7.5 3.357-7.5 7.5v497c0 4.143 3.358 7.5 7.5 7.5s7.5-3.357 7.5-7.5v-497c0-4.143-3.358-7.5-7.5-7.5z"/><path d="m112.159 74.755h126.536c4.142 0 7.5-3.357 7.5-7.5s-3.358-7.5-7.5-7.5h-123.911v-52.255c0-4.143-3.358-7.5-7.5-7.5s-7.5 3.357-7.5 7.5v54.851c0 6.839 5.551 12.404 12.375 12.404z"/><path d="m404.688 0c-4.142 0-7.5 3.357-7.5 7.5v52.255h-123.883c-4.142 0-7.5 3.357-7.5 7.5s3.358 7.5 7.5 7.5h126.507c6.824 0 12.375-5.564 12.375-12.404v-54.851c.001-4.143-3.357-7.5-7.499-7.5z"/></g></g></svg>